<svg width="20" height="20" viewBox="0 0 20 20" fill="none" xmlns="http://www.w3.org/2000/svg">
<g id="ep:arrow-up-bold">
<path id="Vector" d="M13.3839 17.9548C13.6183 17.7204 13.7499 17.4025 13.7499 17.0711C13.7499 16.7396 13.6183 16.4217 13.3839 16.1873L7.19643 9.99982L13.3839 3.81232C13.6116 3.57656 13.7376 3.26081 13.7348 2.93306C13.7319 2.60532 13.6005 2.2918 13.3687 2.06004C13.1369 1.82828 12.8234 1.69682 12.4957 1.69398C12.1679 1.69113 11.8522 1.81712 11.6164 2.04482L4.54518 9.11607C4.31084 9.35048 4.1792 9.66836 4.1792 9.99982C4.1792 10.3313 4.31084 10.6492 4.54518 10.8836L11.6164 17.9548C11.8508 18.1892 12.1687 18.3208 12.5002 18.3208C12.8316 18.3208 13.1495 18.1892 13.3839 17.9548Z" fill="white"/>
</g>
</svg>
