<svg width="20" height="20" viewBox="0 0 20 20" fill="none" xmlns="http://www.w3.org/2000/svg">
<g id="ep:arrow-up-bold">
<path id="Vector" d="M6.61607 17.9548C6.38173 17.7204 6.25008 17.4025 6.25008 17.0711C6.25008 16.7396 6.38173 16.4217 6.61607 16.1873L12.8036 9.99982L6.61607 3.81232C6.38837 3.57656 6.26238 3.26081 6.26523 2.93306C6.26807 2.60532 6.39953 2.2918 6.63129 2.06004C6.86305 1.82828 7.17657 1.69682 7.50432 1.69398C7.83206 1.69113 8.14782 1.81712 8.38357 2.04482L15.4548 9.11607C15.6892 9.35048 15.8208 9.66836 15.8208 9.99982C15.8208 10.3313 15.6892 10.6492 15.4548 10.8836L8.38357 17.9548C8.14916 18.1892 7.83127 18.3208 7.49982 18.3208C7.16836 18.3208 6.85048 18.1892 6.61607 17.9548Z" fill="white"/>
</g>
</svg>
